<?xml version="1.0" encoding="UTF-8" standalone="no"?>
<!DOCTYPE svg PUBLIC "-//W3C//DTD SVG 1.1//EN"
 "http://www.w3.org/Graphics/SVG/1.1/DTD/svg11.dtd">
<!-- Generated by graphviz version 14.0.1 (20251006.0113)
 -->
<!-- Title: petri Pages: 1 -->
<svg width="200pt" height="3232pt"
 viewBox="0.00 0.00 200.00 3232.00" xmlns="http://www.w3.org/2000/svg" xmlns:xlink="http://www.w3.org/1999/xlink">
<g id="graph0" class="graph" transform="scale(1 1) rotate(0) translate(4 3227.99)">
<title>petri</title>
<polygon fill="white" stroke="none" points="-4,4 -4,-3227.99 196.18,-3227.99 196.18,4 -4,4"/>
<!-- p:A_0 -->
<g id="node1" class="node">
<title>p:A_0</title>
<ellipse fill="lightgray" stroke="black" cx="51.09" cy="-28.99" rx="28.99" ry="28.99"/>
<text xml:space="preserve" text-anchor="middle" x="51.09" y="-32.19" font-family="Times New Roman,serif" font-size="14.00">A_0</text>
<text xml:space="preserve" text-anchor="middle" x="51.09" y="-15.69" font-family="Times New Roman,serif" font-size="14.00">1/1</text>
</g>
<!-- p:B_0 -->
<g id="node2" class="node">
<title>p:B_0</title>
<ellipse fill="lightgray" stroke="black" cx="51.09" cy="-104.99" rx="28.99" ry="28.99"/>
<text xml:space="preserve" text-anchor="middle" x="51.09" y="-108.19" font-family="Times New Roman,serif" font-size="14.00">B_0</text>
<text xml:space="preserve" text-anchor="middle" x="51.09" y="-91.69" font-family="Times New Roman,serif" font-size="14.00">1/1</text>
</g>
<!-- p:S_0 -->
<g id="node3" class="node">
<title>p:S_0</title>
<ellipse fill="none" stroke="black" cx="51.09" cy="-180.99" rx="28.99" ry="28.99"/>
<text xml:space="preserve" text-anchor="middle" x="51.09" y="-184.19" font-family="Times New Roman,serif" font-size="14.00">S_0</text>
<text xml:space="preserve" text-anchor="middle" x="51.09" y="-167.69" font-family="Times New Roman,serif" font-size="14.00">0/1</text>
</g>
<!-- p:A_1 -->
<g id="node4" class="node">
<title>p:A_1</title>
<ellipse fill="lightgray" stroke="black" cx="51.09" cy="-256.99" rx="28.99" ry="28.99"/>
<text xml:space="preserve" text-anchor="middle" x="51.09" y="-260.19" font-family="Times New Roman,serif" font-size="14.00">A_1</text>
<text xml:space="preserve" text-anchor="middle" x="51.09" y="-243.69" font-family="Times New Roman,serif" font-size="14.00">1/1</text>
</g>
<!-- p:B_1 -->
<g id="node5" class="node">
<title>p:B_1</title>
<ellipse fill="none" stroke="black" cx="51.09" cy="-332.99" rx="28.99" ry="28.99"/>
<text xml:space="preserve" text-anchor="middle" x="51.09" y="-336.19" font-family="Times New Roman,serif" font-size="14.00">B_1</text>
<text xml:space="preserve" text-anchor="middle" x="51.09" y="-319.69" font-family="Times New Roman,serif" font-size="14.00">0/1</text>
</g>
<!-- p:S_1 -->
<g id="node6" class="node">
<title>p:S_1</title>
<ellipse fill="none" stroke="black" cx="51.09" cy="-408.99" rx="28.99" ry="28.99"/>
<text xml:space="preserve" text-anchor="middle" x="51.09" y="-412.19" font-family="Times New Roman,serif" font-size="14.00">S_1</text>
<text xml:space="preserve" text-anchor="middle" x="51.09" y="-395.69" font-family="Times New Roman,serif" font-size="14.00">0/1</text>
</g>
<!-- p:A_2 -->
<g id="node7" class="node">
<title>p:A_2</title>
<ellipse fill="none" stroke="black" cx="51.09" cy="-484.99" rx="28.99" ry="28.99"/>
<text xml:space="preserve" text-anchor="middle" x="51.09" y="-488.19" font-family="Times New Roman,serif" font-size="14.00">A_2</text>
<text xml:space="preserve" text-anchor="middle" x="51.09" y="-471.69" font-family="Times New Roman,serif" font-size="14.00">0/1</text>
</g>
<!-- p:B_2 -->
<g id="node8" class="node">
<title>p:B_2</title>
<ellipse fill="lightgray" stroke="black" cx="51.09" cy="-560.99" rx="28.99" ry="28.99"/>
<text xml:space="preserve" text-anchor="middle" x="51.09" y="-564.19" font-family="Times New Roman,serif" font-size="14.00">B_2</text>
<text xml:space="preserve" text-anchor="middle" x="51.09" y="-547.69" font-family="Times New Roman,serif" font-size="14.00">1/1</text>
</g>
<!-- p:S_2 -->
<g id="node9" class="node">
<title>p:S_2</title>
<ellipse fill="none" stroke="black" cx="51.09" cy="-636.99" rx="28.99" ry="28.99"/>
<text xml:space="preserve" text-anchor="middle" x="51.09" y="-640.19" font-family="Times New Roman,serif" font-size="14.00">S_2</text>
<text xml:space="preserve" text-anchor="middle" x="51.09" y="-623.69" font-family="Times New Roman,serif" font-size="14.00">0/1</text>
</g>
<!-- p:A_3 -->
<g id="node10" class="node">
<title>p:A_3</title>
<ellipse fill="lightgray" stroke="black" cx="51.09" cy="-712.99" rx="28.99" ry="28.99"/>
<text xml:space="preserve" text-anchor="middle" x="51.09" y="-716.19" font-family="Times New Roman,serif" font-size="14.00">A_3</text>
<text xml:space="preserve" text-anchor="middle" x="51.09" y="-699.69" font-family="Times New Roman,serif" font-size="14.00">1/1</text>
</g>
<!-- p:B_3 -->
<g id="node11" class="node">
<title>p:B_3</title>
<ellipse fill="none" stroke="black" cx="51.09" cy="-788.99" rx="28.99" ry="28.99"/>
<text xml:space="preserve" text-anchor="middle" x="51.09" y="-792.19" font-family="Times New Roman,serif" font-size="14.00">B_3</text>
<text xml:space="preserve" text-anchor="middle" x="51.09" y="-775.69" font-family="Times New Roman,serif" font-size="14.00">0/1</text>
</g>
<!-- p:S_3 -->
<g id="node12" class="node">
<title>p:S_3</title>
<ellipse fill="none" stroke="black" cx="51.09" cy="-864.99" rx="28.99" ry="28.99"/>
<text xml:space="preserve" text-anchor="middle" x="51.09" y="-868.19" font-family="Times New Roman,serif" font-size="14.00">S_3</text>
<text xml:space="preserve" text-anchor="middle" x="51.09" y="-851.69" font-family="Times New Roman,serif" font-size="14.00">0/1</text>
</g>
<!-- p:C_0 -->
<g id="node13" class="node">
<title>p:C_0</title>
<ellipse fill="none" stroke="black" cx="51.09" cy="-940.99" rx="28.99" ry="28.99"/>
<text xml:space="preserve" text-anchor="middle" x="51.09" y="-944.19" font-family="Times New Roman,serif" font-size="14.00">C_0</text>
<text xml:space="preserve" text-anchor="middle" x="51.09" y="-927.69" font-family="Times New Roman,serif" font-size="14.00">0/1</text>
</g>
<!-- p:C_1 -->
<g id="node14" class="node">
<title>p:C_1</title>
<ellipse fill="none" stroke="black" cx="51.09" cy="-1016.99" rx="28.99" ry="28.99"/>
<text xml:space="preserve" text-anchor="middle" x="51.09" y="-1020.19" font-family="Times New Roman,serif" font-size="14.00">C_1</text>
<text xml:space="preserve" text-anchor="middle" x="51.09" y="-1003.69" font-family="Times New Roman,serif" font-size="14.00">0/1</text>
</g>
<!-- p:C_2 -->
<g id="node15" class="node">
<title>p:C_2</title>
<ellipse fill="none" stroke="black" cx="51.09" cy="-1092.99" rx="28.99" ry="28.99"/>
<text xml:space="preserve" text-anchor="middle" x="51.09" y="-1096.19" font-family="Times New Roman,serif" font-size="14.00">C_2</text>
<text xml:space="preserve" text-anchor="middle" x="51.09" y="-1079.69" font-family="Times New Roman,serif" font-size="14.00">0/1</text>
</g>
<!-- p:C_3 -->
<g id="node16" class="node">
<title>p:C_3</title>
<ellipse fill="none" stroke="black" cx="51.09" cy="-1168.99" rx="28.99" ry="28.99"/>
<text xml:space="preserve" text-anchor="middle" x="51.09" y="-1172.19" font-family="Times New Roman,serif" font-size="14.00">C_3</text>
<text xml:space="preserve" text-anchor="middle" x="51.09" y="-1155.69" font-family="Times New Roman,serif" font-size="14.00">0/1</text>
</g>
<!-- p:C_4 -->
<g id="node17" class="node">
<title>p:C_4</title>
<ellipse fill="lightgray" stroke="black" cx="51.09" cy="-1244.99" rx="28.99" ry="28.99"/>
<text xml:space="preserve" text-anchor="middle" x="51.09" y="-1248.19" font-family="Times New Roman,serif" font-size="14.00">C_4</text>
<text xml:space="preserve" text-anchor="middle" x="51.09" y="-1231.69" font-family="Times New Roman,serif" font-size="14.00">1/1</text>
</g>
<!-- p:STAGE_0 -->
<g id="node18" class="node">
<title>p:STAGE_0</title>
<ellipse fill="none" stroke="black" cx="51.09" cy="-1342.99" rx="51.09" ry="51.09"/>
<text xml:space="preserve" text-anchor="middle" x="51.09" y="-1346.19" font-family="Times New Roman,serif" font-size="14.00">STAGE_0</text>
<text xml:space="preserve" text-anchor="middle" x="51.09" y="-1329.69" font-family="Times New Roman,serif" font-size="14.00">0/1</text>
</g>
<!-- p:STAGE_1 -->
<g id="node19" class="node">
<title>p:STAGE_1</title>
<ellipse fill="none" stroke="black" cx="51.09" cy="-1462.99" rx="51.09" ry="51.09"/>
<text xml:space="preserve" text-anchor="middle" x="51.09" y="-1466.19" font-family="Times New Roman,serif" font-size="14.00">STAGE_1</text>
<text xml:space="preserve" text-anchor="middle" x="51.09" y="-1449.69" font-family="Times New Roman,serif" font-size="14.00">0/1</text>
</g>
<!-- p:STAGE_2 -->
<g id="node20" class="node">
<title>p:STAGE_2</title>
<ellipse fill="none" stroke="black" cx="51.09" cy="-1582.99" rx="51.09" ry="51.09"/>
<text xml:space="preserve" text-anchor="middle" x="51.09" y="-1586.19" font-family="Times New Roman,serif" font-size="14.00">STAGE_2</text>
<text xml:space="preserve" text-anchor="middle" x="51.09" y="-1569.69" font-family="Times New Roman,serif" font-size="14.00">0/1</text>
</g>
<!-- p:STAGE_3 -->
<g id="node21" class="node">
<title>p:STAGE_3</title>
<ellipse fill="none" stroke="black" cx="51.09" cy="-1702.99" rx="51.09" ry="51.09"/>
<text xml:space="preserve" text-anchor="middle" x="51.09" y="-1706.19" font-family="Times New Roman,serif" font-size="14.00">STAGE_3</text>
<text xml:space="preserve" text-anchor="middle" x="51.09" y="-1689.69" font-family="Times New Roman,serif" font-size="14.00">0/1</text>
</g>
<!-- p:STAGE_4 -->
<g id="node22" class="node">
<title>p:STAGE_4</title>
<ellipse fill="lightgray" stroke="black" cx="51.09" cy="-1822.99" rx="51.09" ry="51.09"/>
<text xml:space="preserve" text-anchor="middle" x="51.09" y="-1826.19" font-family="Times New Roman,serif" font-size="14.00">STAGE_4</text>
<text xml:space="preserve" text-anchor="middle" x="51.09" y="-1809.69" font-family="Times New Roman,serif" font-size="14.00">1/1</text>
</g>
<!-- t:T0_ci0_eq00 -->
<g id="node23" class="node">
<title>t:T0_ci0_eq00</title>
<polygon fill="none" stroke="black" points="94.71,-1927.99 7.46,-1927.99 7.46,-1891.99 94.71,-1891.99 94.71,-1927.99"/>
<text xml:space="preserve" text-anchor="middle" x="51.09" y="-1904.94" font-family="Times New Roman,serif" font-size="14.00">T0_ci0_eq00</text>
</g>
<!-- p -->
<g id="node24" class="node">
<title>p</title>
<ellipse fill="none" stroke="black" cx="51.09" cy="-1963.99" rx="27" ry="18"/>
<text xml:space="preserve" text-anchor="middle" x="51.09" y="-1958.94" font-family="Times New Roman,serif" font-size="14.00">p</text>
</g>
<!-- t -->
<g id="node25" class="node">
<title>t</title>
<ellipse fill="none" stroke="black" cx="165.18" cy="-1963.99" rx="27" ry="18"/>
<text xml:space="preserve" text-anchor="middle" x="165.18" y="-1958.94" font-family="Times New Roman,serif" font-size="14.00">t</text>
</g>
<!-- p&#45;&gt;t -->
<g id="edge1" class="edge">
<title>p:STAGE_0&#45;&gt;t:T0_ci0_eq00</title>
<path fill="none" stroke="black" d="M52.11,-1945.54C53.92,-1226.88 161.22,-1223.16 164.12,-1934.38"/>
<polygon fill="black" stroke="black" points="160.62,-1934.19 164.15,-1944.18 167.62,-1934.17 160.62,-1934.19"/>
</g>
<!-- p&#45;&gt;t -->
<g id="edge3" class="edge">
<title>p:STAGE_0&#45;&gt;t:T0_ci0_eq11</title>
<path fill="none" stroke="black" d="M52.11,-1945.66C54,-1262.99 161.04,-1259.12 164.11,-1934.07"/>
<polygon fill="black" stroke="black" points="160.61,-1934.07 164.15,-1944.06 167.61,-1934.04 160.61,-1934.07"/>
</g>
<!-- p&#45;&gt;t -->
<g id="edge6" class="edge">
<title>p:STAGE_0&#45;&gt;t:T0_ci0_xor</title>
<path fill="none" stroke="black" d="M52.12,-1945.88C54.13,-1316.99 160.78,-1313.05 164.1,-1934.06"/>
<polygon fill="black" stroke="black" points="160.6,-1934.08 164.14,-1944.06 167.6,-1934.05 160.6,-1934.08"/>
</g>
<!-- p&#45;&gt;t -->
<g id="edge9" class="edge">
<title>p:STAGE_0&#45;&gt;t:T0_ci1_xor</title>
<path fill="none" stroke="black" d="M52.12,-1945.63C54.34,-1370.86 160.52,-1367.14 164.09,-1934.45"/>
<polygon fill="black" stroke="black" points="160.58,-1934.32 164.13,-1944.31 167.58,-1934.29 160.58,-1934.32"/>
</g>
<!-- p&#45;&gt;t -->
<g id="edge10" class="edge">
<title>p:C_0&#45;&gt;t:T0_ci1_xor</title>
<path fill="none" stroke="black" d="M52.13,-1945.76C54.39,-1388.98 160.37,-1385.1 164.08,-1934.12"/>
<polygon fill="black" stroke="black" points="160.58,-1934.04 164.13,-1944.02 167.58,-1934 160.58,-1934.04"/>
</g>
<!-- p&#45;&gt;t -->
<g id="edge13" class="edge">
<title>p:STAGE_0&#45;&gt;t:T0_ci1_eq00</title>
<path fill="none" stroke="black" d="M52.13,-1945.54C54.65,-1442.9 160.01,-1439.17 164.06,-1934.34"/>
<polygon fill="black" stroke="black" points="160.56,-1934.27 164.12,-1944.24 167.56,-1934.22 160.56,-1934.27"/>
</g>
<!-- p&#45;&gt;t -->
<g id="edge14" class="edge">
<title>p:C_0&#45;&gt;t:T0_ci1_eq00</title>
<path fill="none" stroke="black" d="M52.14,-1945.8C54.7,-1460.92 159.86,-1457.09 164.05,-1934.29"/>
<polygon fill="black" stroke="black" points="160.55,-1934.16 164.12,-1944.14 167.55,-1934.12 160.55,-1934.16"/>
</g>
<!-- p&#45;&gt;t -->
<g id="edge17" class="edge">
<title>p:STAGE_0&#45;&gt;t:T0_ci1_eq11</title>
<path fill="none" stroke="black" d="M52.15,-1945.75C55.01,-1514.92 159.36,-1511.11 164.02,-1934.31"/>
<polygon fill="black" stroke="black" points="160.51,-1934.19 164.1,-1944.16 167.51,-1934.12 160.51,-1934.19"/>
</g>
<!-- p&#45;&gt;t -->
<g id="edge18" class="edge">
<title>p:C_0&#45;&gt;t:T0_ci1_eq11</title>
<path fill="none" stroke="black" d="M52.16,-1945.52C55.17,-1532.93 159.16,-1529.18 164,-1934.29"/>
<polygon fill="black" stroke="black" points="160.5,-1934.3 164.1,-1944.27 167.5,-1934.23 160.5,-1934.3"/>
</g>
<!-- p&#45;&gt;t -->
<g id="edge22" class="edge">
<title>p:STAGE_1&#45;&gt;t:T1_ci0_eq00</title>
<path fill="none" stroke="black" d="M52.18,-1945.66C55.73,-1604.96 158.16,-1601.15 163.92,-1934.22"/>
<polygon fill="black" stroke="black" points="160.42,-1934.24 164.06,-1944.19 167.42,-1934.14 160.42,-1934.24"/>
</g>
<!-- p&#45;&gt;t -->
<g id="edge24" class="edge">
<title>p:STAGE_1&#45;&gt;t:T1_ci0_eq11</title>
<path fill="none" stroke="black" d="M52.2,-1945.8C56.09,-1640.87 157.58,-1637.1 163.87,-1934.51"/>
<polygon fill="black" stroke="black" points="160.37,-1934.22 164.04,-1944.16 167.37,-1934.1 160.37,-1934.22"/>
</g>
<!-- p&#45;&gt;t -->
<g id="edge27" class="edge">
<title>p:STAGE_1&#45;&gt;t:T1_ci0_xor</title>
<path fill="none" stroke="black" d="M52.26,-1945.61C56.89,-1694.96 156.24,-1691.18 163.73,-1934.25"/>
<polygon fill="black" stroke="black" points="160.23,-1934.21 163.97,-1944.12 167.23,-1934.04 160.23,-1934.21"/>
</g>
<!-- p&#45;&gt;t -->
<g id="edge30" class="edge">
<title>p:STAGE_1&#45;&gt;t:T1_ci1_xor</title>
<path fill="none" stroke="black" d="M52.34,-1945.73C57.96,-1748.94 154.38,-1745.15 163.49,-1934.38"/>
<polygon fill="black" stroke="black" points="159.98,-1934.25 163.86,-1944.1 166.97,-1933.98 159.98,-1934.25"/>
</g>
<!-- p&#45;&gt;t -->
<g id="edge31" class="edge">
<title>p:C_1&#45;&gt;t:T1_ci1_xor</title>
<path fill="none" stroke="black" d="M52.39,-1945.76C58.44,-1766.91 153.56,-1763.15 163.36,-1934.48"/>
<polygon fill="black" stroke="black" points="159.86,-1934.4 163.81,-1944.23 166.85,-1934.08 159.86,-1934.4"/>
</g>
<!-- p&#45;&gt;t -->
<g id="edge34" class="edge">
<title>p:STAGE_1&#45;&gt;t:T1_ci1_eq00</title>
<path fill="none" stroke="black" d="M52.66,-1945.53C60.68,-1820.92 149.86,-1817.26 162.65,-1934.54"/>
<polygon fill="black" stroke="black" points="159.15,-1934.7 163.49,-1944.37 166.13,-1934.1 159.15,-1934.7"/>
</g>
<!-- p&#45;&gt;t -->
<g id="edge35" class="edge">
<title>p:C_1&#45;&gt;t:T1_ci1_eq00</title>
<path fill="none" stroke="black" d="M52.83,-1945.54C61.75,-1838.97 147.9,-1835.28 162.18,-1934.45"/>
<polygon fill="black" stroke="black" points="158.68,-1934.65 163.28,-1944.19 165.63,-1933.86 158.68,-1934.65"/>
</g>
<!-- p&#45;&gt;t -->
<g id="edge38" class="edge">
<title>p:STAGE_1&#45;&gt;t:T1_ci1_eq11</title>
<path fill="none" stroke="black" d="M54.23,-1945.69C67.4,-1892.87 137.58,-1889.34 158.37,-1935.1"/>
<polygon fill="black" stroke="black" points="155.05,-1936.22 161.61,-1944.54 161.67,-1933.94 155.05,-1936.22"/>
</g>
<!-- p&#45;&gt;t -->
<g id="edge39" class="edge">
<title>p:C_1&#45;&gt;t:T1_ci1_eq11</title>
<path fill="none" stroke="black" d="M55.69,-1945.87C71.04,-1910.55 131.25,-1907.35 154.73,-1936.27"/>
<polygon fill="black" stroke="black" points="151.55,-1937.77 159.74,-1944.48 157.52,-1934.12 151.55,-1937.77"/>
</g>
<!-- p&#45;&gt;t -->
<g id="edge43" class="edge">
<title>p:STAGE_2&#45;&gt;t:T2_ci0_eq00</title>
<path fill="none" stroke="black" d="M76.96,-1969.71C92.06,-1970.83 111.57,-1971.04 128.31,-1970.34"/>
<polygon fill="black" stroke="black" points="128.07,-1973.86 137.86,-1969.79 127.68,-1966.87 128.07,-1973.86"/>
</g>
<!-- p&#45;&gt;t -->
<g id="edge45" class="edge">
<title>p:STAGE_2&#45;&gt;t:T2_ci0_eq11</title>
<path fill="none" stroke="black" d="M59.1,-1981.42C76.79,-2000.55 123.59,-2002.86 148.33,-1988.37"/>
<polygon fill="black" stroke="black" points="150.28,-1991.29 155.98,-1982.36 145.95,-1985.79 150.28,-1991.29"/>
</g>
<!-- p&#45;&gt;t -->
<g id="edge48" class="edge">
<title>p:STAGE_2&#45;&gt;t:T2_ci0_xor</title>
<path fill="none" stroke="black" d="M53.51,-1982.4C64.93,-2052.99 142.07,-2056.65 160.31,-1993.39"/>
<polygon fill="black" stroke="black" points="163.72,-1994.21 162.46,-1983.69 156.88,-1992.69 163.72,-1994.21"/>
</g>
<!-- p&#45;&gt;t -->
<g id="edge51" class="edge">
<title>p:STAGE_2&#45;&gt;t:T2_ci1_xor</title>
<path fill="none" stroke="black" d="M52.66,-1982.46C60.68,-2107.06 149.86,-2110.73 162.65,-1993.45"/>
<polygon fill="black" stroke="black" points="166.13,-1993.88 163.49,-1983.62 159.15,-1993.28 166.13,-1993.88"/>
</g>
<!-- p&#45;&gt;t -->
<g id="edge52" class="edge">
<title>p:C_2&#45;&gt;t:T2_ci1_xor</title>
<path fill="none" stroke="black" d="M52.54,-1982.32C59.76,-2125.08 151.38,-2128.78 162.97,-1993.42"/>
<polygon fill="black" stroke="black" points="166.45,-1993.84 163.63,-1983.62 159.47,-1993.37 166.45,-1993.84"/>
</g>
<!-- p&#45;&gt;t -->
<g id="edge55" class="edge">
<title>p:STAGE_2&#45;&gt;t:T2_ci1_eq00</title>
<path fill="none" stroke="black" d="M52.34,-1982.26C57.96,-2179.05 154.38,-2182.83 163.49,-1993.6"/>
<polygon fill="black" stroke="black" points="166.97,-1994.01 163.86,-1983.88 159.98,-1993.74 166.97,-1994.01"/>
</g>
<!-- p&#45;&gt;t -->
<g id="edge56" class="edge">
<title>p:C_2&#45;&gt;t:T2_ci1_eq00</title>
<path fill="none" stroke="black" d="M52.31,-1982.37C57.58,-2197.07 155.12,-2200.8 163.59,-1993.56"/>
<polygon fill="black" stroke="black" points="167.08,-1993.86 163.91,-1983.75 160.09,-1993.63 167.08,-1993.86"/>
</g>
<!-- p&#45;&gt;t -->
<g id="edge59" class="edge">
<title>p:STAGE_2&#45;&gt;t:T2_ci1_eq11</title>
<path fill="none" stroke="black" d="M52.23,-1982.31C56.59,-2251.02 156.71,-2254.83 163.78,-1993.75"/>
<polygon fill="black" stroke="black" points="167.28,-1993.92 164,-1983.85 160.28,-1993.77 167.28,-1993.92"/>
</g>
<!-- p&#45;&gt;t -->
<g id="edge60" class="edge">
<title>p:C_2&#45;&gt;t:T2_ci1_eq11</title>
<path fill="none" stroke="black" d="M52.22,-1982.09C56.29,-2269.1 157.19,-2272.91 163.83,-1993.53"/>
<polygon fill="black" stroke="black" points="167.33,-1993.75 164.02,-1983.69 160.33,-1993.62 167.33,-1993.75"/>
</g>
<!-- p&#45;&gt;t -->
<g id="edge64" class="edge">
<title>p:STAGE_3&#45;&gt;t:T3_ci0_eq00</title>
<path fill="none" stroke="black" d="M52.17,-1982.4C55.58,-2341.06 158.46,-2344.82 163.95,-1993.67"/>
<polygon fill="black" stroke="black" points="167.45,-1993.93 164.07,-1983.89 160.45,-1993.84 167.45,-1993.93"/>
</g>
<!-- p&#45;&gt;t -->
<g id="edge66" class="edge">
<title>p:STAGE_3&#45;&gt;t:T3_ci0_eq11</title>
<path fill="none" stroke="black" d="M52.16,-1982.31C55.27,-2377.08 158.96,-2380.85 163.99,-1993.62"/>
<polygon fill="black" stroke="black" points="167.48,-1993.89 164.09,-1983.85 160.49,-1993.82 167.48,-1993.89"/>
</g>
<!-- p&#45;&gt;t -->
<g id="edge69" class="edge">
<title>p:STAGE_3&#45;&gt;t:T3_ci0_xor</title>
<path fill="none" stroke="black" d="M52.14,-1982.27C54.91,-2431 159.51,-2434.87 164.03,-1993.87"/>
<polygon fill="black" stroke="black" points="167.53,-1993.91 164.11,-1983.88 160.53,-1993.86 167.53,-1993.91"/>
</g>
<!-- p&#45;&gt;t -->
<g id="edge72" class="edge">
<title>p:STAGE_3&#45;&gt;t:T3_ci1_xor</title>
<path fill="none" stroke="black" d="M52.13,-1982.44C54.65,-2485.08 160.01,-2488.81 164.06,-1993.64"/>
<polygon fill="black" stroke="black" points="167.56,-1993.76 164.12,-1983.74 160.56,-1993.72 167.56,-1993.76"/>
</g>
<!-- p&#45;&gt;t -->
<g id="edge73" class="edge">
<title>p:C_3&#45;&gt;t:T3_ci1_xor</title>
<path fill="none" stroke="black" d="M52.13,-1982.28C54.55,-2502.99 160.11,-2506.87 164.06,-1993.9"/>
<polygon fill="black" stroke="black" points="167.56,-1994 164.12,-1983.98 160.56,-1993.96 167.56,-1994"/>
</g>
<!-- p&#45;&gt;t -->
<g id="edge76" class="edge">
<title>p:STAGE_3&#45;&gt;t:T3_ci1_eq00</title>
<path fill="none" stroke="black" d="M52.12,-1982.35C54.34,-2557.12 160.52,-2560.85 164.09,-1993.53"/>
<polygon fill="black" stroke="black" points="167.58,-1993.7 164.13,-1983.68 160.58,-1993.66 167.58,-1993.7"/>
</g>
<!-- p&#45;&gt;t -->
<g id="edge77" class="edge">
<title>p:C_3&#45;&gt;t:T3_ci1_eq00</title>
<path fill="none" stroke="black" d="M52.12,-1982.45C54.29,-2575.11 160.63,-2578.81 164.09,-1993.56"/>
<polygon fill="black" stroke="black" points="167.59,-1993.8 164.14,-1983.78 160.59,-1993.77 167.59,-1993.8"/>
</g>
<!-- p&#45;&gt;t -->
<g id="edge80" class="edge">
<title>p:STAGE_3&#45;&gt;t:T3_ci1_eq11</title>
<path fill="none" stroke="black" d="M52.12,-1982.12C54.07,-2629.03 160.88,-2632.93 164.1,-1993.8"/>
<polygon fill="black" stroke="black" points="167.6,-1993.96 164.14,-1983.95 160.6,-1993.94 167.6,-1993.96"/>
</g>
<!-- p&#45;&gt;t -->
<g id="edge81" class="edge">
<title>p:C_3&#45;&gt;t:T3_ci1_eq11</title>
<path fill="none" stroke="black" d="M52.11,-1982.1C54.02,-2647.09 160.98,-2650.93 164.11,-1993.64"/>
<polygon fill="black" stroke="black" points="167.61,-1993.97 164.14,-1983.95 160.61,-1993.94 167.61,-1993.97"/>
</g>
<!-- t&#45;&gt;p -->
<g id="edge2" class="edge">
<title>t:T0_ci0_eq00&#45;&gt;p:STAGE_1</title>
<path fill="none" stroke="black" d="M164.15,-1945.62C162.31,-1244.86 55.11,-1241.14 52.15,-1934.43"/>
<polygon fill="black" stroke="black" points="48.65,-1934.2 52.12,-1944.21 55.65,-1934.22 48.65,-1934.2"/>
</g>
<!-- t&#45;&gt;p -->
<g id="edge4" class="edge">
<title>t:T0_ci0_eq11&#45;&gt;p:STAGE_1</title>
<path fill="none" stroke="black" d="M164.15,-1945.54C162.21,-1280.78 55.24,-1277.16 52.16,-1934.68"/>
<polygon fill="black" stroke="black" points="48.66,-1934.35 52.12,-1944.37 55.66,-1934.38 48.66,-1934.35"/>
</g>
<!-- t&#45;&gt;p -->
<g id="edge5" class="edge">
<title>t:T0_ci0_eq11&#45;&gt;p:C_1</title>
<path fill="none" stroke="black" d="M164.15,-1945.55C162.16,-1298.85 55.35,-1295.16 52.16,-1934.49"/>
<polygon fill="black" stroke="black" points="48.66,-1934.34 52.12,-1944.35 55.66,-1934.36 48.66,-1934.34"/>
</g>
<!-- t&#45;&gt;p -->
<g id="edge7" class="edge">
<title>t:T0_ci0_xor&#45;&gt;p:STAGE_1</title>
<path fill="none" stroke="black" d="M164.15,-1945.63C162.05,-1334.77 55.5,-1331.13 52.17,-1934.72"/>
<polygon fill="black" stroke="black" points="48.67,-1934.38 52.13,-1944.4 55.67,-1934.41 48.67,-1934.38"/>
</g>
<!-- t&#45;&gt;p -->
<g id="edge8" class="edge">
<title>t:T0_ci0_xor&#45;&gt;p:S_0</title>
<path fill="none" stroke="black" d="M164.14,-1945.71C162,-1352.93 55.66,-1349.11 52.18,-1934.24"/>
<polygon fill="black" stroke="black" points="48.68,-1934 52.13,-1944.02 55.68,-1934.03 48.68,-1934"/>
</g>
<!-- t&#45;&gt;p -->
<g id="edge11" class="edge">
<title>t:T0_ci1_xor&#45;&gt;p:STAGE_1</title>
<path fill="none" stroke="black" d="M164.14,-1945.71C161.8,-1406.99 56.03,-1403.11 52.2,-1934.07"/>
<polygon fill="black" stroke="black" points="48.7,-1933.98 52.14,-1944 55.7,-1934.02 48.7,-1933.98"/>
</g>
<!-- t&#45;&gt;p -->
<g id="edge12" class="edge">
<title>t:T0_ci1_xor&#45;&gt;p:C_1</title>
<path fill="none" stroke="black" d="M164.13,-1945.52C161.69,-1424.93 56.13,-1421.18 52.2,-1934.26"/>
<polygon fill="black" stroke="black" points="48.7,-1934.17 52.14,-1944.19 55.7,-1934.21 48.7,-1934.17"/>
</g>
<!-- t&#45;&gt;p -->
<g id="edge15" class="edge">
<title>t:T0_ci1_eq00&#45;&gt;p:STAGE_1</title>
<path fill="none" stroke="black" d="M164.12,-1945.61C161.44,-1478.87 56.54,-1475.15 52.23,-1934.45"/>
<polygon fill="black" stroke="black" points="48.73,-1934.19 52.15,-1944.22 55.73,-1934.24 48.73,-1934.19"/>
</g>
<!-- t&#45;&gt;p -->
<g id="edge16" class="edge">
<title>t:T0_ci1_eq00&#45;&gt;p:S_0</title>
<path fill="none" stroke="black" d="M164.12,-1945.61C161.34,-1496.95 56.74,-1493.15 52.24,-1934.21"/>
<polygon fill="black" stroke="black" points="48.74,-1934.17 52.16,-1944.2 55.74,-1934.23 48.74,-1934.17"/>
</g>
<!-- t&#45;&gt;p -->
<g id="edge19" class="edge">
<title>t:T0_ci1_eq11&#45;&gt;p:STAGE_1</title>
<path fill="none" stroke="black" d="M164.11,-1945.64C160.99,-1550.89 57.3,-1547.14 52.28,-1934.4"/>
<polygon fill="black" stroke="black" points="48.78,-1934.13 52.18,-1944.16 55.78,-1934.2 48.78,-1934.13"/>
</g>
<!-- t&#45;&gt;p -->
<g id="edge20" class="edge">
<title>t:T0_ci1_eq11&#45;&gt;p:S_0</title>
<path fill="none" stroke="black" d="M164.1,-1945.59C160.84,-1568.93 57.56,-1565.16 52.3,-1934.28"/>
<polygon fill="black" stroke="black" points="48.8,-1934.04 52.18,-1944.08 55.8,-1934.12 48.8,-1934.04"/>
</g>
<!-- t&#45;&gt;p -->
<g id="edge21" class="edge">
<title>t:T0_ci1_eq11&#45;&gt;p:C_1</title>
<path fill="none" stroke="black" d="M164.09,-1945.61C160.69,-1586.93 57.81,-1583.16 52.32,-1934.29"/>
<polygon fill="black" stroke="black" points="48.82,-1934.03 52.19,-1944.07 55.82,-1934.12 48.82,-1934.03"/>
</g>
<!-- t&#45;&gt;p -->
<g id="edge23" class="edge">
<title>t:T1_ci0_eq00&#45;&gt;p:STAGE_2</title>
<path fill="none" stroke="black" d="M164.07,-1945.63C160.35,-1622.88 58.36,-1619.15 52.36,-1934.46"/>
<polygon fill="black" stroke="black" points="48.87,-1934.24 52.21,-1944.29 55.87,-1934.35 48.87,-1934.24"/>
</g>
<!-- t&#45;&gt;p -->
<g id="edge25" class="edge">
<title>t:T1_ci0_eq11&#45;&gt;p:STAGE_2</title>
<path fill="none" stroke="black" d="M164.05,-1945.81C159.96,-1658.86 59.05,-1655.1 52.43,-1934.54"/>
<polygon fill="black" stroke="black" points="48.93,-1934.32 52.24,-1944.38 55.93,-1934.45 48.93,-1934.32"/>
</g>
<!-- t&#45;&gt;p -->
<g id="edge26" class="edge">
<title>t:T1_ci0_eq11&#45;&gt;p:C_2</title>
<path fill="none" stroke="black" d="M164.03,-1945.64C159.67,-1676.96 59.55,-1673.16 52.48,-1934.26"/>
<polygon fill="black" stroke="black" points="48.98,-1934.09 52.27,-1944.16 55.98,-1934.24 48.98,-1934.09"/>
</g>
<!-- t&#45;&gt;p -->
<g id="edge28" class="edge">
<title>t:T1_ci0_xor&#45;&gt;p:STAGE_2</title>
<path fill="none" stroke="black" d="M163.99,-1945.78C159.1,-1712.9 60.52,-1709.12 52.59,-1934.45"/>
<polygon fill="black" stroke="black" points="49.1,-1934.1 52.32,-1944.19 56.1,-1934.29 49.1,-1934.1"/>
</g>
<!-- t&#45;&gt;p -->
<g id="edge29" class="edge">
<title>t:T1_ci0_xor&#45;&gt;p:S_1</title>
<path fill="none" stroke="black" d="M163.96,-1945.75C158.73,-1730.96 61.19,-1727.14 52.68,-1934.29"/>
<polygon fill="black" stroke="black" points="49.19,-1933.99 52.36,-1944.1 56.18,-1934.22 49.19,-1933.99"/>
</g>
<!-- t&#45;&gt;p -->
<g id="edge32" class="edge">
<title>t:T1_ci1_xor&#45;&gt;p:STAGE_2</title>
<path fill="none" stroke="black" d="M163.81,-1945.63C157.2,-1785 63.8,-1781.2 53.09,-1934.24"/>
<polygon fill="black" stroke="black" points="49.6,-1933.84 52.55,-1944.02 56.59,-1934.23 49.6,-1933.84"/>
</g>
<!-- t&#45;&gt;p -->
<g id="edge33" class="edge">
<title>t:T1_ci1_xor&#45;&gt;p:C_2</title>
<path fill="none" stroke="black" d="M163.74,-1945.87C156.59,-1802.97 64.98,-1799.14 53.31,-1934.37"/>
<polygon fill="black" stroke="black" points="49.83,-1933.94 52.64,-1944.15 56.81,-1934.41 49.83,-1933.94"/>
</g>
<!-- t&#45;&gt;p -->
<g id="edge36" class="edge">
<title>t:T1_ci1_eq00&#45;&gt;p:STAGE_2</title>
<path fill="none" stroke="black" d="M163.19,-1945.64C153.2,-1856.94 70.75,-1853.27 54.77,-1934.63"/>
<polygon fill="black" stroke="black" points="51.38,-1933.63 53.32,-1944.04 58.3,-1934.69 51.38,-1933.63"/>
</g>
<!-- t&#45;&gt;p -->
<g id="edge37" class="edge">
<title>t:T1_ci1_eq00&#45;&gt;p:S_1</title>
<path fill="none" stroke="black" d="M162.79,-1945.78C151.49,-1875.07 74.36,-1871.28 56,-1934.41"/>
<polygon fill="black" stroke="black" points="52.6,-1933.58 53.84,-1944.1 59.43,-1935.11 52.6,-1933.58"/>
</g>
<!-- t&#45;&gt;p -->
<g id="edge40" class="edge">
<title>t:T1_ci1_eq11&#45;&gt;p:STAGE_2</title>
<path fill="none" stroke="black" d="M157.17,-1946.56C139.48,-1927.44 92.68,-1925.12 67.94,-1939.61"/>
<polygon fill="black" stroke="black" points="65.99,-1936.69 60.29,-1945.62 70.31,-1942.19 65.99,-1936.69"/>
</g>
<!-- t&#45;&gt;p -->
<g id="edge41" class="edge">
<title>t:T1_ci1_eq11&#45;&gt;p:S_1</title>
<path fill="none" stroke="black" d="M148.36,-1949.38C130.29,-1943.01 100.43,-1942.04 78.75,-1946.45"/>
<polygon fill="black" stroke="black" points="77.87,-1943.06 69.13,-1949.06 79.7,-1949.82 77.87,-1943.06"/>
</g>
<!-- t&#45;&gt;p -->
<g id="edge42" class="edge">
<title>t:T1_ci1_eq11&#45;&gt;p:C_2</title>
<path fill="none" stroke="black" d="M139.37,-1958.28C124.29,-1957.16 104.78,-1956.95 88.03,-1957.64"/>
<polygon fill="black" stroke="black" points="88.26,-1954.12 78.48,-1958.19 88.66,-1961.11 88.26,-1954.12"/>
</g>
<!-- t&#45;&gt;p -->
<g id="edge44" class="edge">
<title>t:T2_ci0_eq00&#45;&gt;p:STAGE_3</title>
<path fill="none" stroke="black" d="M148.36,-1978.61C130.29,-1984.97 100.43,-1985.94 78.75,-1981.53"/>
<polygon fill="black" stroke="black" points="79.7,-1978.16 69.13,-1978.92 77.87,-1984.92 79.7,-1978.16"/>
</g>
<!-- t&#45;&gt;p -->
<g id="edge46" class="edge">
<title>t:T2_ci0_eq11&#45;&gt;p:STAGE_3</title>
<path fill="none" stroke="black" d="M160.53,-1982.21C145.1,-2017.47 84.88,-2020.61 61.47,-1991.63"/>
<polygon fill="black" stroke="black" points="64.66,-1990.14 56.48,-1983.41 58.67,-1993.77 64.66,-1990.14"/>
</g>
<!-- t&#45;&gt;p -->
<g id="edge47" class="edge">
<title>t:T2_ci0_eq11&#45;&gt;p:C_3</title>
<path fill="none" stroke="black" d="M162.11,-1982.02C149.14,-2035 78.97,-2038.71 58,-1993.12"/>
<polygon fill="black" stroke="black" points="61.32,-1992.01 54.73,-1983.72 54.71,-1994.31 61.32,-1992.01"/>
</g>
<!-- t&#45;&gt;p -->
<g id="edge49" class="edge">
<title>t:T2_ci0_xor&#45;&gt;p:STAGE_3</title>
<path fill="none" stroke="black" d="M163.19,-1982.34C153.2,-2071.05 70.75,-2074.72 54.77,-1993.35"/>
<polygon fill="black" stroke="black" points="58.3,-1993.29 53.32,-1983.94 51.38,-1994.35 58.3,-1993.29"/>
</g>
<!-- t&#45;&gt;p -->
<g id="edge50" class="edge">
<title>t:T2_ci0_xor&#45;&gt;p:S_2</title>
<path fill="none" stroke="black" d="M163.44,-1982.29C154.6,-2088.95 68.46,-2092.75 54.11,-1993.68"/>
<polygon fill="black" stroke="black" points="57.61,-1993.49 53,-1983.95 50.65,-1994.28 57.61,-1993.49"/>
</g>
<!-- t&#45;&gt;p -->
<g id="edge53" class="edge">
<title>t:T2_ci1_xor&#45;&gt;p:STAGE_3</title>
<path fill="none" stroke="black" d="M163.81,-1982.35C157.2,-2142.98 63.8,-2146.78 53.09,-1993.74"/>
<polygon fill="black" stroke="black" points="56.59,-1993.75 52.55,-1983.96 49.6,-1994.14 56.59,-1993.75"/>
</g>
<!-- t&#45;&gt;p -->
<g id="edge54" class="edge">
<title>t:T2_ci1_xor&#45;&gt;p:C_3</title>
<path fill="none" stroke="black" d="M163.87,-1982.24C157.82,-2161.08 62.69,-2164.83 52.9,-1993.49"/>
<polygon fill="black" stroke="black" points="56.41,-1993.57 52.46,-1983.73 49.42,-1993.88 56.41,-1993.57"/>
</g>
<!-- t&#45;&gt;p -->
<g id="edge57" class="edge">
<title>t:T2_ci1_eq00&#45;&gt;p:STAGE_3</title>
<path fill="none" stroke="black" d="M163.99,-1982.21C159.1,-2215.08 60.52,-2218.86 52.59,-1993.53"/>
<polygon fill="black" stroke="black" points="56.1,-1993.69 52.32,-1983.79 49.1,-1993.88 56.1,-1993.69"/>
</g>
<!-- t&#45;&gt;p -->
<g id="edge58" class="edge">
<title>t:T2_ci1_eq00&#45;&gt;p:S_2</title>
<path fill="none" stroke="black" d="M164.01,-1982.35C159.39,-2233.01 60.03,-2236.81 52.54,-1993.75"/>
<polygon fill="black" stroke="black" points="56.04,-1993.79 52.29,-1983.88 49.04,-1993.97 56.04,-1993.79"/>
</g>
<!-- t&#45;&gt;p -->
<g id="edge61" class="edge">
<title>t:T2_ci1_eq11&#45;&gt;p:STAGE_3</title>
<path fill="none" stroke="black" d="M164.06,-1982.31C160.15,-2287.16 58.66,-2290.84 52.39,-1993.35"/>
<polygon fill="black" stroke="black" points="55.9,-1993.64 52.23,-1983.7 48.9,-1993.75 55.9,-1993.64"/>
</g>
<!-- t&#45;&gt;p -->
<g id="edge62" class="edge">
<title>t:T2_ci1_eq11&#45;&gt;p:S_2</title>
<path fill="none" stroke="black" d="M164.07,-1982.35C160.35,-2305.1 58.36,-2308.83 52.36,-1993.53"/>
<polygon fill="black" stroke="black" points="55.87,-1993.63 52.21,-1983.69 48.87,-1993.74 55.87,-1993.63"/>
</g>
<!-- t&#45;&gt;p -->
<g id="edge63" class="edge">
<title>t:T2_ci1_eq11&#45;&gt;p:C_3</title>
<path fill="none" stroke="black" d="M164.08,-1982.28C160.54,-2323.01 58.11,-2326.85 52.34,-1993.8"/>
<polygon fill="black" stroke="black" points="55.84,-1993.79 52.2,-1983.84 48.84,-1993.89 55.84,-1993.79"/>
</g>
<!-- t&#45;&gt;p -->
<g id="edge65" class="edge">
<title>t:T3_ci0_eq00&#45;&gt;p:STAGE_4</title>
<path fill="none" stroke="black" d="M164.1,-1982.4C160.84,-2359.05 57.56,-2362.82 52.3,-1993.7"/>
<polygon fill="black" stroke="black" points="55.8,-1993.86 52.18,-1983.91 48.8,-1993.94 55.8,-1993.86"/>
</g>
<!-- t&#45;&gt;p -->
<g id="edge67" class="edge">
<title>t:T3_ci0_eq11&#45;&gt;p:STAGE_4</title>
<path fill="none" stroke="black" d="M164.11,-1982.2C161.14,-2394.97 57.15,-2398.88 52.27,-1993.94"/>
<polygon fill="black" stroke="black" points="55.77,-1993.94 52.17,-1983.97 48.77,-1994.01 55.77,-1993.94"/>
</g>
<!-- t&#45;&gt;p -->
<g id="edge68" class="edge">
<title>t:T3_ci0_eq11&#45;&gt;p:C_4</title>
<path fill="none" stroke="black" d="M164.12,-1982.31C161.24,-2413.09 56.9,-2416.85 52.25,-1993.59"/>
<polygon fill="black" stroke="black" points="55.75,-1993.72 52.16,-1983.75 48.75,-1993.78 55.75,-1993.72"/>
</g>
<!-- t&#45;&gt;p -->
<g id="edge70" class="edge">
<title>t:T3_ci0_xor&#45;&gt;p:STAGE_4</title>
<path fill="none" stroke="black" d="M164.12,-1982.38C161.44,-2449.11 56.54,-2452.83 52.23,-1993.53"/>
<polygon fill="black" stroke="black" points="55.73,-1993.74 52.15,-1983.76 48.73,-1993.79 55.73,-1993.74"/>
</g>
<!-- t&#45;&gt;p -->
<g id="edge71" class="edge">
<title>t:T3_ci0_xor&#45;&gt;p:S_3</title>
<path fill="none" stroke="black" d="M164.13,-1982.33C161.54,-2467.11 56.38,-2470.85 52.22,-1993.55"/>
<polygon fill="black" stroke="black" points="55.72,-1993.67 52.15,-1983.7 48.72,-1993.72 55.72,-1993.67"/>
</g>
<!-- t&#45;&gt;p -->
<g id="edge74" class="edge">
<title>t:T3_ci1_xor&#45;&gt;p:STAGE_4</title>
<path fill="none" stroke="black" d="M164.14,-1982.27C161.8,-2520.99 56.03,-2524.87 52.2,-1993.91"/>
<polygon fill="black" stroke="black" points="55.7,-1993.97 52.14,-1983.99 48.7,-1994.01 55.7,-1993.97"/>
</g>
<!-- t&#45;&gt;p -->
<g id="edge75" class="edge">
<title>t:T3_ci1_xor&#45;&gt;p:C_4</title>
<path fill="none" stroke="black" d="M164.14,-1982.45C161.85,-2539.08 55.87,-2542.81 52.19,-1993.64"/>
<polygon fill="black" stroke="black" points="55.69,-1993.72 52.13,-1983.74 48.69,-1993.75 55.69,-1993.72"/>
</g>
<!-- t&#45;&gt;p -->
<g id="edge78" class="edge">
<title>t:T3_ci1_eq00&#45;&gt;p:STAGE_4</title>
<path fill="none" stroke="black" d="M164.15,-1982.35C162.05,-2593.21 55.5,-2596.85 52.17,-1993.26"/>
<polygon fill="black" stroke="black" points="55.67,-1993.57 52.13,-1983.58 48.67,-1993.6 55.67,-1993.57"/>
</g>
<!-- t&#45;&gt;p -->
<g id="edge79" class="edge">
<title>t:T3_ci1_eq00&#45;&gt;p:S_3</title>
<path fill="none" stroke="black" d="M164.15,-1982.41C162.1,-2611.25 55.4,-2614.83 52.16,-1993.16"/>
<polygon fill="black" stroke="black" points="55.67,-1993.61 52.12,-1983.62 48.67,-1993.64 55.67,-1993.61"/>
</g>
<!-- t&#45;&gt;p -->
<g id="edge82" class="edge">
<title>t:T3_ci1_eq11&#45;&gt;p:STAGE_4</title>
<path fill="none" stroke="black" d="M164.15,-1982.41C162.26,-2665.03 55.22,-2668.83 52.16,-1993.82"/>
<polygon fill="black" stroke="black" points="55.66,-1993.82 52.12,-1983.83 48.66,-1993.84 55.66,-1993.82"/>
</g>
<!-- t&#45;&gt;p -->
<g id="edge83" class="edge">
<title>t:T3_ci1_eq11&#45;&gt;p:S_3</title>
<path fill="none" stroke="black" d="M164.15,-1982.36C162.31,-2683.12 55.11,-2686.85 52.15,-1993.55"/>
<polygon fill="black" stroke="black" points="55.65,-1993.76 52.12,-1983.77 48.65,-1993.78 55.65,-1993.76"/>
</g>
<!-- t&#45;&gt;p -->
<g id="edge84" class="edge">
<title>t:T3_ci1_eq11&#45;&gt;p:C_4</title>
<path fill="none" stroke="black" d="M164.15,-1982.29C162.36,-2701.05 55.06,-2704.87 52.15,-1993.76"/>
<polygon fill="black" stroke="black" points="55.65,-1993.94 52.12,-1983.95 48.65,-1993.96 55.65,-1993.94"/>
</g>
<!-- t:T0_ci0_eq11 -->
<g id="node26" class="node">
<title>t:T0_ci0_eq11</title>
<polygon fill="none" stroke="black" points="94.71,-2035.99 7.46,-2035.99 7.46,-1999.99 94.71,-1999.99 94.71,-2035.99"/>
<text xml:space="preserve" text-anchor="middle" x="51.09" y="-2012.94" font-family="Times New Roman,serif" font-size="14.00">T0_ci0_eq11</text>
</g>
<!-- t:T0_ci0_xor -->
<g id="node27" class="node">
<title>t:T0_ci0_xor</title>
<polygon fill="none" stroke="black" points="90.59,-2089.99 11.59,-2089.99 11.59,-2053.99 90.59,-2053.99 90.59,-2089.99"/>
<text xml:space="preserve" text-anchor="middle" x="51.09" y="-2066.94" font-family="Times New Roman,serif" font-size="14.00">T0_ci0_xor</text>
</g>
<!-- t:T0_ci1_xor -->
<g id="node28" class="node">
<title>t:T0_ci1_xor</title>
<polygon fill="none" stroke="black" points="90.59,-2143.99 11.59,-2143.99 11.59,-2107.99 90.59,-2107.99 90.59,-2143.99"/>
<text xml:space="preserve" text-anchor="middle" x="51.09" y="-2120.94" font-family="Times New Roman,serif" font-size="14.00">T0_ci1_xor</text>
</g>
<!-- t:T0_ci1_eq00 -->
<g id="node29" class="node">
<title>t:T0_ci1_eq00</title>
<polygon fill="none" stroke="black" points="94.71,-2197.99 7.46,-2197.99 7.46,-2161.99 94.71,-2161.99 94.71,-2197.99"/>
<text xml:space="preserve" text-anchor="middle" x="51.09" y="-2174.94" font-family="Times New Roman,serif" font-size="14.00">T0_ci1_eq00</text>
</g>
<!-- t:T0_ci1_eq11 -->
<g id="node30" class="node">
<title>t:T0_ci1_eq11</title>
<polygon fill="none" stroke="black" points="94.71,-2251.99 7.46,-2251.99 7.46,-2215.99 94.71,-2215.99 94.71,-2251.99"/>
<text xml:space="preserve" text-anchor="middle" x="51.09" y="-2228.94" font-family="Times New Roman,serif" font-size="14.00">T0_ci1_eq11</text>
</g>
<!-- t:T1_ci0_eq00 -->
<g id="node31" class="node">
<title>t:T1_ci0_eq00</title>
<polygon fill="none" stroke="black" points="94.71,-2305.99 7.46,-2305.99 7.46,-2269.99 94.71,-2269.99 94.71,-2305.99"/>
<text xml:space="preserve" text-anchor="middle" x="51.09" y="-2282.94" font-family="Times New Roman,serif" font-size="14.00">T1_ci0_eq00</text>
</g>
<!-- t:T1_ci0_eq11 -->
<g id="node32" class="node">
<title>t:T1_ci0_eq11</title>
<polygon fill="none" stroke="black" points="94.71,-2359.99 7.46,-2359.99 7.46,-2323.99 94.71,-2323.99 94.71,-2359.99"/>
<text xml:space="preserve" text-anchor="middle" x="51.09" y="-2336.94" font-family="Times New Roman,serif" font-size="14.00">T1_ci0_eq11</text>
</g>
<!-- t:T1_ci0_xor -->
<g id="node33" class="node">
<title>t:T1_ci0_xor</title>
<polygon fill="none" stroke="black" points="90.59,-2413.99 11.59,-2413.99 11.59,-2377.99 90.59,-2377.99 90.59,-2413.99"/>
<text xml:space="preserve" text-anchor="middle" x="51.09" y="-2390.94" font-family="Times New Roman,serif" font-size="14.00">T1_ci0_xor</text>
</g>
<!-- t:T1_ci1_xor -->
<g id="node34" class="node">
<title>t:T1_ci1_xor</title>
<polygon fill="none" stroke="black" points="90.59,-2467.99 11.59,-2467.99 11.59,-2431.99 90.59,-2431.99 90.59,-2467.99"/>
<text xml:space="preserve" text-anchor="middle" x="51.09" y="-2444.94" font-family="Times New Roman,serif" font-size="14.00">T1_ci1_xor</text>
</g>
<!-- t:T1_ci1_eq00 -->
<g id="node35" class="node">
<title>t:T1_ci1_eq00</title>
<polygon fill="none" stroke="black" points="94.71,-2521.99 7.46,-2521.99 7.46,-2485.99 94.71,-2485.99 94.71,-2521.99"/>
<text xml:space="preserve" text-anchor="middle" x="51.09" y="-2498.94" font-family="Times New Roman,serif" font-size="14.00">T1_ci1_eq00</text>
</g>
<!-- t:T1_ci1_eq11 -->
<g id="node36" class="node">
<title>t:T1_ci1_eq11</title>
<polygon fill="none" stroke="black" points="94.71,-2575.99 7.46,-2575.99 7.46,-2539.99 94.71,-2539.99 94.71,-2575.99"/>
<text xml:space="preserve" text-anchor="middle" x="51.09" y="-2552.94" font-family="Times New Roman,serif" font-size="14.00">T1_ci1_eq11</text>
</g>
<!-- t:T2_ci0_eq00 -->
<g id="node37" class="node">
<title>t:T2_ci0_eq00</title>
<polygon fill="none" stroke="black" points="94.71,-2629.99 7.46,-2629.99 7.46,-2593.99 94.71,-2593.99 94.71,-2629.99"/>
<text xml:space="preserve" text-anchor="middle" x="51.09" y="-2606.94" font-family="Times New Roman,serif" font-size="14.00">T2_ci0_eq00</text>
</g>
<!-- t:T2_ci0_eq11 -->
<g id="node38" class="node">
<title>t:T2_ci0_eq11</title>
<polygon fill="none" stroke="black" points="94.71,-2683.99 7.46,-2683.99 7.46,-2647.99 94.71,-2647.99 94.71,-2683.99"/>
<text xml:space="preserve" text-anchor="middle" x="51.09" y="-2660.94" font-family="Times New Roman,serif" font-size="14.00">T2_ci0_eq11</text>
</g>
<!-- t:T2_ci0_xor -->
<g id="node39" class="node">
<title>t:T2_ci0_xor</title>
<polygon fill="none" stroke="black" points="90.59,-2737.99 11.59,-2737.99 11.59,-2701.99 90.59,-2701.99 90.59,-2737.99"/>
<text xml:space="preserve" text-anchor="middle" x="51.09" y="-2714.94" font-family="Times New Roman,serif" font-size="14.00">T2_ci0_xor</text>
</g>
<!-- t:T2_ci1_xor -->
<g id="node40" class="node">
<title>t:T2_ci1_xor</title>
<polygon fill="gold" stroke="black" points="90.59,-2791.99 11.59,-2791.99 11.59,-2755.99 90.59,-2755.99 90.59,-2791.99"/>
<text xml:space="preserve" text-anchor="middle" x="51.09" y="-2768.94" font-family="Times New Roman,serif" font-size="14.00">T2_ci1_xor</text>
</g>
<!-- t:T2_ci1_eq00 -->
<g id="node41" class="node">
<title>t:T2_ci1_eq00</title>
<polygon fill="none" stroke="black" points="94.71,-2845.99 7.46,-2845.99 7.46,-2809.99 94.71,-2809.99 94.71,-2845.99"/>
<text xml:space="preserve" text-anchor="middle" x="51.09" y="-2822.94" font-family="Times New Roman,serif" font-size="14.00">T2_ci1_eq00</text>
</g>
<!-- t:T2_ci1_eq11 -->
<g id="node42" class="node">
<title>t:T2_ci1_eq11</title>
<polygon fill="none" stroke="black" points="94.71,-2899.99 7.46,-2899.99 7.46,-2863.99 94.71,-2863.99 94.71,-2899.99"/>
<text xml:space="preserve" text-anchor="middle" x="51.09" y="-2876.94" font-family="Times New Roman,serif" font-size="14.00">T2_ci1_eq11</text>
</g>
<!-- t:T3_ci0_eq00 -->
<g id="node43" class="node">
<title>t:T3_ci0_eq00</title>
<polygon fill="none" stroke="black" points="94.71,-2953.99 7.46,-2953.99 7.46,-2917.99 94.71,-2917.99 94.71,-2953.99"/>
<text xml:space="preserve" text-anchor="middle" x="51.09" y="-2930.94" font-family="Times New Roman,serif" font-size="14.00">T3_ci0_eq00</text>
</g>
<!-- t:T3_ci0_eq11 -->
<g id="node44" class="node">
<title>t:T3_ci0_eq11</title>
<polygon fill="none" stroke="black" points="94.71,-3007.99 7.46,-3007.99 7.46,-2971.99 94.71,-2971.99 94.71,-3007.99"/>
<text xml:space="preserve" text-anchor="middle" x="51.09" y="-2984.94" font-family="Times New Roman,serif" font-size="14.00">T3_ci0_eq11</text>
</g>
<!-- t:T3_ci0_xor -->
<g id="node45" class="node">
<title>t:T3_ci0_xor</title>
<polygon fill="none" stroke="black" points="90.59,-3061.99 11.59,-3061.99 11.59,-3025.99 90.59,-3025.99 90.59,-3061.99"/>
<text xml:space="preserve" text-anchor="middle" x="51.09" y="-3038.94" font-family="Times New Roman,serif" font-size="14.00">T3_ci0_xor</text>
</g>
<!-- t:T3_ci1_xor -->
<g id="node46" class="node">
<title>t:T3_ci1_xor</title>
<polygon fill="none" stroke="black" points="90.59,-3115.99 11.59,-3115.99 11.59,-3079.99 90.59,-3079.99 90.59,-3115.99"/>
<text xml:space="preserve" text-anchor="middle" x="51.09" y="-3092.94" font-family="Times New Roman,serif" font-size="14.00">T3_ci1_xor</text>
</g>
<!-- t:T3_ci1_eq00 -->
<g id="node47" class="node">
<title>t:T3_ci1_eq00</title>
<polygon fill="none" stroke="black" points="94.71,-3169.99 7.46,-3169.99 7.46,-3133.99 94.71,-3133.99 94.71,-3169.99"/>
<text xml:space="preserve" text-anchor="middle" x="51.09" y="-3146.94" font-family="Times New Roman,serif" font-size="14.00">T3_ci1_eq00</text>
</g>
<!-- t:T3_ci1_eq11 -->
<g id="node48" class="node">
<title>t:T3_ci1_eq11</title>
<polygon fill="none" stroke="black" points="94.71,-3223.99 7.46,-3223.99 7.46,-3187.99 94.71,-3187.99 94.71,-3223.99"/>
<text xml:space="preserve" text-anchor="middle" x="51.09" y="-3200.94" font-family="Times New Roman,serif" font-size="14.00">T3_ci1_eq11</text>
</g>
</g>
</svg>
